# xmcd
#
# Track frame offsets:
#	150
#	20377
#	35062
#	53180
#	69587
#	86656
#	101010
#	125035
#	141290
#	160339
#	178861
#	201663
#	217405
#	231124
#	247760
#	265243
#	281901
#	298609
#	313608
#	327689
#
# Disc length: 4621 seconds
#
# Revision: 1
# Processed by: cddbd v1.5.1PL0 Copyright (c) Steve Scherf et al.
# Submitted via: audiograbber 1.83.01
#
DISCID=49120b14
DTITLE=Кавказские хиты - Лучшее
DYEAR=1900
DGENRE=
TTITLE0=Zainad Mahaeva
TTITLE1=Zagir Magomedov - Tol'ko dlya tebya
TTITLE2=Zagir Magomedov - Bezotvetnaya lyubov'
TTITLE3=Mashidat i Gamzalav
TTITLE4=Mashidat Omarashabova - 2
TTITLE5=Ruslan Magomedov - 2
TTITLE6=Гаджилав Гаджилаев - Юнная красавица
TTITLE7=Губы - Невесомость
TTITLE8=Зарема Магомедова - Смотри на меня
TTITLE9=Кинса - Не грусти
TTITLE10=М.Ташаева - Лезгинка
TTITLE11=Макка Сагаипова - Ветер
TTITLE12=Макка Сагаипова - Красивый парень
TTITLE13=Макка Сагаипова и Шамо - Родина
TTITLE14=Ротару - Небо это я
TTITLE15=Руссо - Будь со мной
TTITLE16=Сабина Абдуллаева - Огонь любви
TTITLE17=Тамара Дадашева - Дагестан (русс)
TTITLE18=Тамара Дадашева - Звезда счастья
TTITLE19=Шахман Далдаев - Письмо
EXTD=
EXTT0=
EXTT1=
EXTT2=
EXTT3=
EXTT4=
EXTT5=
EXTT6=
EXTT7=
EXTT8=
EXTT9=
EXTT10=
EXTT11=
EXTT12=
EXTT13=
EXTT14=
EXTT15=
EXTT16=
EXTT17=
EXTT18=
EXTT19=
PLAYORDER=
